<svg width="193" height="113" viewBox="0 0 193 113" fill="none" xmlns="http://www.w3.org/2000/svg">
<path d="M79.1538 45.6661C68.9097 47.5408 61.56 47.145 60.4875 44.1362C58.7967 39.3932 73.3452 29.9528 92.9825 23.0506C112.62 16.1485 129.91 14.3981 131.6 19.1412C132.68 22.1684 127.144 27.1091 117.891 32.082" stroke="#364D9D" stroke-width="2"/>
<ellipse cx="95.4646" cy="30.8596" rx="22.9368" ry="22.7755" fill="#364D9D"/>
<path fill-rule="evenodd" clip-rule="evenodd" d="M84.7606 23.912C84.7606 22.9972 85.5074 22.2556 86.4287 22.2556H104.778C105.699 22.2556 106.446 22.9972 106.446 23.912V38.8196C106.446 39.7344 105.699 40.476 104.778 40.476H86.4287C85.5074 40.476 84.7606 39.7344 84.7606 38.8196V23.912ZM104.778 23.912H86.4287V38.8196H104.778V23.912Z" fill="#EDECEE"/>
<path fill-rule="evenodd" clip-rule="evenodd" d="M84.7606 26.3966C84.7606 25.9392 85.134 25.5684 85.5946 25.5684H105.612C106.073 25.5684 106.446 25.9392 106.446 26.3966C106.446 26.854 106.073 27.2248 105.612 27.2248H85.5946C85.134 27.2248 84.7606 26.854 84.7606 26.3966Z" fill="#EDECEE"/>
<path fill-rule="evenodd" clip-rule="evenodd" d="M91.4331 28.8812C91.8937 28.8812 92.2671 29.252 92.2671 29.7094C92.2671 30.588 92.6186 31.4307 93.2443 32.0519C93.87 32.6732 94.7186 33.0222 95.6034 33.0222C96.4882 33.0222 97.3368 32.6732 97.9625 32.0519C98.5882 31.4307 98.9396 30.588 98.9396 29.7094C98.9396 29.252 99.3131 28.8812 99.7737 28.8812C100.234 28.8812 100.608 29.252 100.608 29.7094C100.608 31.0273 100.081 32.2913 99.142 33.2232C98.2035 34.1551 96.9306 34.6786 95.6034 34.6786C94.2761 34.6786 93.0033 34.1551 92.0648 33.2232C91.1262 32.2913 90.599 31.0273 90.599 29.7094C90.599 29.252 90.9724 28.8812 91.4331 28.8812Z" fill="#EDECEE"/>
<path d="M79.1537 45.6661C80.882 45.3498 82.6928 44.9689 84.5697 44.525M117.891 32.082C116.148 33.0191 114.273 33.9574 112.285 34.8842" stroke="#F7F7F8" stroke-width="2"/>
<path d="M0.565315 107.061C0.188438 107.061 0 106.872 0 106.495V90.9493C0 90.5933 0.146563 90.4154 0.439689 90.4154H3.54892C3.84205 90.4154 3.98861 90.5724 3.98861 90.8864V92.5196C3.98861 92.6452 4.02002 92.729 4.08283 92.7708C4.14564 92.7918 4.22939 92.7499 4.33408 92.6452C4.92033 92.1218 5.48565 91.6716 6.03002 91.2947C6.59534 90.9179 7.17112 90.6247 7.75737 90.4154C8.36456 90.185 9.00316 90.0699 9.67316 90.0699C10.8457 90.0699 11.8088 90.3421 12.5625 90.8864C13.3163 91.4308 13.8397 92.1218 14.1329 92.9593C14.1747 93.043 14.2376 93.0744 14.3213 93.0535C14.4051 93.0326 14.4888 92.9802 14.5726 92.8965C15.1169 92.3521 15.6927 91.8705 16.2999 91.4518C16.9071 91.033 17.5352 90.7085 18.1843 90.4782C18.8334 90.2269 19.4824 90.1013 20.1315 90.1013C21.6181 90.1013 22.7906 90.5514 23.649 91.4518C24.5074 92.3311 24.9367 93.5351 24.9367 95.0635V106.401C24.9367 106.841 24.7168 107.061 24.2771 107.061H21.3877C21.1993 107.061 21.0632 107.019 20.9795 106.935C20.8957 106.851 20.8538 106.705 20.8538 106.495V95.6916C20.8538 94.8751 20.6445 94.2469 20.2257 93.8072C19.8279 93.3466 19.2207 93.1163 18.4041 93.1163C17.9226 93.1163 17.4619 93.2105 17.0223 93.399C16.5826 93.5665 16.1848 93.7863 15.8288 94.0585C15.4729 94.3307 15.1588 94.6029 14.8866 94.8751C14.7401 95.0216 14.6354 95.1682 14.5726 95.3147C14.5307 95.4404 14.5097 95.5974 14.5097 95.7858V106.401C14.5097 106.841 14.2899 107.061 13.8502 107.061H10.9608C10.7933 107.061 10.6572 107.019 10.5525 106.935C10.4688 106.851 10.4269 106.705 10.4269 106.495V95.6916C10.4269 94.8751 10.228 94.2469 9.83019 93.8072C9.43238 93.3466 8.81472 93.1163 7.97722 93.1163C7.26534 93.1163 6.60581 93.2943 5.99862 93.6502C5.41237 94.0061 4.77377 94.5401 4.08283 95.2519V106.433C4.08283 106.851 3.84205 107.061 3.36048 107.061H0.565315Z" fill="#1A181B"/>
<path d="M37.878 105.333C37.1662 105.962 36.3915 106.464 35.554 106.841C34.7165 107.197 33.7638 107.375 32.696 107.375C31.0838 107.375 29.8171 106.956 28.8958 106.119C27.9955 105.26 27.5454 104.15 27.5454 102.789C27.5454 101.638 27.8908 100.643 28.5818 99.8059C29.2727 98.9474 30.2777 98.2774 31.5968 97.7958C32.9158 97.3143 34.4966 97.0316 36.3391 96.9479L37.9095 96.8537C38.0351 96.8327 38.1502 96.7908 38.2549 96.728C38.3596 96.6652 38.412 96.5501 38.412 96.3826V95.6602C38.412 94.739 38.1398 94.0271 37.5954 93.5246C37.051 93.0011 36.2973 92.7394 35.3341 92.7394C34.6013 92.7394 33.9104 92.9069 33.2613 93.2419C32.6332 93.556 32.0888 94.0794 31.6282 94.8122C31.5654 94.9379 31.4921 95.0216 31.4083 95.0635C31.3455 95.1054 31.2199 95.1054 31.0315 95.0635L28.3933 94.404C28.2886 94.3621 28.2049 94.2993 28.1421 94.2155C28.1002 94.1318 28.1421 93.9643 28.2677 93.713C28.833 92.5196 29.7229 91.6193 30.9372 91.0121C32.1726 90.4049 33.701 90.1013 35.5226 90.1013C37.1348 90.1013 38.4329 90.3211 39.417 90.7608C40.422 91.2005 41.1548 91.8182 41.6154 92.6138C42.076 93.3885 42.3063 94.3097 42.3063 95.3776V106.433C42.3063 106.663 42.2645 106.83 42.1807 106.935C42.1179 107.019 41.9818 107.061 41.7724 107.061H39.1029C38.9145 107.061 38.7784 106.987 38.6946 106.841C38.6109 106.694 38.5585 106.516 38.5376 106.307L38.4748 105.365C38.4329 105.009 38.234 104.998 37.878 105.333ZM38.412 99.4604C38.412 99.0835 38.2549 98.9055 37.9409 98.9265L36.6532 99.0207C35.9832 99.0626 35.3341 99.1673 34.706 99.3348C34.0988 99.4813 33.5544 99.6907 33.0729 99.9629C32.6122 100.214 32.2354 100.539 31.9422 100.936C31.6701 101.313 31.534 101.764 31.534 102.287C31.534 102.999 31.7852 103.564 32.2877 103.983C32.8112 104.402 33.5126 104.611 34.3919 104.611C34.9573 104.611 35.4807 104.517 35.9623 104.328C36.4438 104.14 36.8626 103.899 37.2185 103.606C37.5745 103.313 37.8571 103.009 38.0665 102.695C38.2968 102.36 38.412 102.025 38.412 101.69V99.4604Z" fill="#1A181B"/>
<path d="M46.7854 107.061C46.5761 107.061 46.4295 107.019 46.3457 106.935C46.262 106.83 46.2201 106.684 46.2201 106.495V90.9493C46.2201 90.5933 46.3667 90.4154 46.6598 90.4154H49.7062C49.9994 90.4154 50.1459 90.5724 50.1459 90.8864V92.8022C50.1459 92.9279 50.1878 93.0116 50.2715 93.0535C50.3553 93.0744 50.4495 93.0221 50.5542 92.8965C51.0148 92.2893 51.5069 91.7868 52.0303 91.389C52.5747 90.9702 53.1191 90.6561 53.6634 90.4468C54.2287 90.2164 54.7731 90.1013 55.2966 90.1013C56.0503 90.1013 56.4272 90.2688 56.4272 90.6038V93.6188C56.4272 93.9119 56.2911 94.0376 56.0189 93.9957C55.7048 93.9119 55.3698 93.8596 55.0139 93.8386C54.6789 93.7968 54.3648 93.7758 54.0717 93.7758C53.6739 93.7758 53.2447 93.8596 52.784 94.0271C52.3444 94.1946 51.9361 94.4354 51.5592 94.7494C51.1823 95.0426 50.8787 95.3671 50.6484 95.723C50.4181 96.079 50.3029 96.4454 50.3029 96.8223V106.433C50.3029 106.851 50.0622 107.061 49.5806 107.061H46.7854Z" fill="#1A181B"/>
<path d="M74.9297 106.401C75.0344 106.548 75.0553 106.694 74.9925 106.841C74.9297 106.987 74.7831 107.061 74.5528 107.061H71.0981C70.9097 107.061 70.7527 107.019 70.627 106.935C70.5223 106.83 70.4281 106.684 70.3444 106.495L66.5756 99.4604C66.5128 99.3138 66.45 99.2301 66.3872 99.2091C66.3244 99.1882 66.2302 99.2405 66.1045 99.3662L63.4978 101.941C63.414 102.025 63.3408 102.119 63.2779 102.224C63.2361 102.329 63.2151 102.475 63.2151 102.664V106.37C63.2151 106.621 63.1628 106.799 63.0581 106.904C62.9534 107.008 62.765 107.061 62.4928 107.061H59.7604C59.5092 107.061 59.3417 107.019 59.2579 106.935C59.1742 106.83 59.1323 106.684 59.1323 106.495V84.2911C59.1323 83.9352 59.2893 83.7572 59.6034 83.7572H62.7755C63.0686 83.7572 63.2151 83.9247 63.2151 84.2597V97.733C63.2151 97.8587 63.2465 97.9424 63.3094 97.9843C63.3722 98.0262 63.4664 97.9738 63.592 97.8273L70.1245 90.855C70.4177 90.5619 70.6794 90.4154 70.9097 90.4154H73.7677C74.0399 90.4154 74.1969 90.4886 74.2388 90.6352C74.3016 90.7818 74.2388 90.9493 74.0503 91.1377L69.4336 95.7858C69.3499 95.8905 69.2975 95.9952 69.2766 96.0999C69.2556 96.2046 69.2975 96.3616 69.4022 96.571L74.9297 106.401Z" fill="#1A181B"/>
<path d="M79.9143 100.026C79.9143 100.884 80.1132 101.659 80.511 102.35C80.9088 103.02 81.4532 103.554 82.1441 103.951C82.856 104.328 83.6307 104.517 84.4682 104.517C85.3266 104.517 86.1013 104.339 86.7922 103.983C87.5041 103.627 88.1741 103.051 88.8023 102.256C88.886 102.151 88.9593 102.099 89.0221 102.099C89.0849 102.078 89.1896 102.109 89.3362 102.193L91.252 103.041C91.5241 103.166 91.5556 103.355 91.3462 103.606C90.718 104.527 90.0376 105.271 89.3048 105.836C88.5929 106.38 87.7972 106.778 86.9179 107.029C86.0594 107.26 85.0858 107.375 83.9971 107.375C82.4058 107.375 80.9821 107.019 79.7258 106.307C78.4696 105.595 77.475 104.611 76.7422 103.355C76.0303 102.078 75.6744 100.612 75.6744 98.9579C75.6744 97.1363 76.0408 95.566 76.7736 94.2469C77.5274 92.9279 78.5324 91.9124 79.7886 91.2005C81.0449 90.4677 82.4268 90.1013 83.9343 90.1013C85.5255 90.1013 86.9074 90.4468 88.0799 91.1377C89.2733 91.8286 90.2051 92.8232 90.8751 94.1213C91.5451 95.3985 91.8801 96.9583 91.8801 98.8009C91.8801 99.0102 91.8591 99.1777 91.8173 99.3034C91.7963 99.429 91.6498 99.5023 91.3776 99.5232H80.2597C80.1341 99.5232 80.0399 99.5651 79.9771 99.6488C79.9352 99.7326 79.9143 99.8582 79.9143 100.026ZM87.3576 97.1991C87.5669 97.1991 87.703 97.1782 87.7658 97.1363C87.8496 97.0735 87.8915 96.9479 87.8915 96.7594C87.8915 96.1104 87.7449 95.4718 87.4518 94.8437C87.1587 94.2155 86.7294 93.7026 86.1641 93.3047C85.5988 92.886 84.9079 92.6766 84.0913 92.6766C83.2538 92.6766 82.521 92.886 81.8928 93.3047C81.2647 93.7026 80.7832 94.2469 80.4482 94.9379C80.1341 95.6079 79.9771 96.3616 79.9771 97.1991H87.3576Z" fill="#1A181B"/>
<path d="M100.557 93.2733C100.348 93.2733 100.243 93.3885 100.243 93.6188V102.004C100.243 102.821 100.411 103.386 100.746 103.7C101.081 104.014 101.604 104.171 102.316 104.171H104.169C104.295 104.171 104.399 104.213 104.483 104.297C104.567 104.381 104.609 104.485 104.609 104.611L104.577 106.244C104.577 106.579 104.378 106.789 103.981 106.872C103.667 106.914 103.3 106.956 102.881 106.998C102.463 107.019 102.044 107.04 101.625 107.061C101.227 107.061 100.861 107.061 100.526 107.061C99.1231 107.061 98.0448 106.736 97.2911 106.087C96.5373 105.417 96.1604 104.412 96.1604 103.072V93.6816C96.1604 93.4094 96.0348 93.2733 95.7835 93.2733H93.6793C93.3443 93.2733 93.1768 93.1163 93.1768 92.8022V90.8236C93.1768 90.5514 93.3338 90.4154 93.6479 90.4154H95.972C96.1604 90.4154 96.2546 90.3107 96.2546 90.1013L96.6629 85.2647C96.6839 84.9297 96.8304 84.7622 97.1026 84.7622H99.8978C100.191 84.7622 100.337 84.9402 100.337 85.2961V90.1013C100.337 90.2897 100.432 90.3839 100.62 90.3839H104.169C104.483 90.3839 104.64 90.5305 104.64 90.8236V92.8022C104.64 93.1163 104.462 93.2733 104.106 93.2733H100.557Z" fill="#1A181B"/>
<path d="M117.736 94.5296C117.339 94.0061 116.815 93.5665 116.166 93.2105C115.517 92.8546 114.721 92.6766 113.779 92.6766C112.879 92.6766 112.125 92.8546 111.518 93.2105C110.911 93.5665 110.607 94.069 110.607 94.718C110.607 95.0321 110.733 95.3357 110.984 95.6288C111.235 95.9219 111.79 96.1837 112.649 96.414L116.386 97.419C118.019 97.8168 119.181 98.4449 119.872 99.3034C120.584 100.141 120.94 101.094 120.94 102.161C120.94 103.25 120.626 104.182 119.998 104.957C119.39 105.731 118.532 106.328 117.422 106.747C116.334 107.165 115.088 107.375 113.685 107.375C111.884 107.375 110.345 107.05 109.068 106.401C107.791 105.731 106.891 104.904 106.367 103.92C106.304 103.794 106.273 103.679 106.273 103.575C106.273 103.449 106.325 103.344 106.43 103.261L108.283 102.318C108.451 102.214 108.587 102.172 108.691 102.193C108.796 102.214 108.88 102.266 108.943 102.35C109.257 102.789 109.613 103.187 110.01 103.543C110.429 103.899 110.932 104.182 111.518 104.391C112.125 104.601 112.858 104.695 113.716 104.674C114.365 104.674 114.952 104.59 115.475 104.423C116.019 104.255 116.449 104.025 116.763 103.732C117.077 103.418 117.234 103.041 117.234 102.601C117.234 102.182 117.056 101.816 116.7 101.502C116.344 101.188 115.705 100.916 114.784 100.685L111.581 99.9315C109.989 99.5546 108.817 98.9893 108.063 98.2355C107.33 97.4818 106.964 96.5396 106.964 95.409C106.964 94.3621 107.236 93.4408 107.781 92.6452C108.346 91.8496 109.141 91.2319 110.167 90.7922C111.193 90.3316 112.408 90.1013 113.811 90.1013C115.36 90.1013 116.7 90.3839 117.831 90.9493C118.961 91.5146 119.788 92.216 120.312 93.0535C120.395 93.1582 120.448 93.2733 120.469 93.399C120.511 93.5246 120.458 93.6293 120.312 93.713L118.364 94.6866C118.239 94.7494 118.124 94.7704 118.019 94.7494C117.914 94.7076 117.82 94.6343 117.736 94.5296Z" fill="#1A181B"/>
<path d="M127.517 90.4154C127.915 90.4154 128.113 90.6038 128.113 90.9807V92.0485C128.113 92.195 128.155 92.2788 128.239 92.2997C128.323 92.2997 128.417 92.2474 128.522 92.1427C128.836 91.8496 129.192 91.546 129.59 91.2319C130.008 90.9179 130.511 90.6561 131.097 90.4468C131.683 90.2164 132.395 90.1013 133.233 90.1013C134.489 90.1013 135.609 90.4154 136.593 91.0435C137.577 91.6507 138.362 92.5824 138.949 93.8386C139.535 95.074 139.828 96.6443 139.828 98.5496C139.828 100.518 139.535 102.161 138.949 103.48C138.362 104.779 137.546 105.752 136.499 106.401C135.473 107.05 134.29 107.375 132.95 107.375C132.092 107.375 131.306 107.239 130.595 106.967C129.883 106.694 129.244 106.297 128.679 105.773C128.469 105.585 128.323 105.501 128.239 105.522C128.155 105.543 128.113 105.689 128.113 105.962V111.74C128.113 112.075 127.967 112.243 127.674 112.243H124.47C124.177 112.243 124.031 112.075 124.031 111.74V91.0435C124.031 90.8132 124.073 90.6561 124.156 90.5724C124.24 90.4677 124.408 90.4154 124.659 90.4154H127.517ZM128.113 102.978C128.595 103.501 129.108 103.92 129.652 104.234C130.218 104.548 130.846 104.705 131.537 104.705C132.374 104.705 133.097 104.496 133.704 104.077C134.332 103.637 134.813 102.967 135.148 102.067C135.504 101.146 135.682 99.9629 135.682 98.5182C135.682 97.0944 135.504 95.9638 135.148 95.1263C134.813 94.2888 134.332 93.6921 133.704 93.3361C133.097 92.9593 132.416 92.7708 131.662 92.7708C130.971 92.7708 130.354 92.9174 129.809 93.2105C129.286 93.4827 128.867 93.8386 128.553 94.2783C128.26 94.718 128.113 95.1787 128.113 95.6602V102.978Z" fill="#1A181B"/>
<path d="M152.217 105.333C151.505 105.962 150.73 106.464 149.893 106.841C149.055 107.197 148.103 107.375 147.035 107.375C145.423 107.375 144.156 106.956 143.235 106.119C142.334 105.26 141.884 104.15 141.884 102.789C141.884 101.638 142.23 100.643 142.921 99.8059C143.612 98.9474 144.617 98.2774 145.936 97.7958C147.255 97.3143 148.835 97.0316 150.678 96.9479L152.248 96.8537C152.374 96.8327 152.489 96.7908 152.594 96.728C152.698 96.6652 152.751 96.5501 152.751 96.3826V95.6602C152.751 94.739 152.479 94.0271 151.934 93.5246C151.39 93.0011 150.636 92.7394 149.673 92.7394C148.94 92.7394 148.249 92.9069 147.6 93.2419C146.972 93.556 146.428 94.0794 145.967 94.8122C145.904 94.9379 145.831 95.0216 145.747 95.0635C145.684 95.1054 145.559 95.1054 145.37 95.0635L142.732 94.404C142.627 94.3621 142.544 94.2993 142.481 94.2155C142.439 94.1318 142.481 93.9643 142.607 93.713C143.172 92.5196 144.062 91.6193 145.276 91.0121C146.511 90.4049 148.04 90.1013 149.861 90.1013C151.474 90.1013 152.772 90.3211 153.756 90.7608C154.761 91.2005 155.494 91.8182 155.954 92.6138C156.415 93.3885 156.645 94.3097 156.645 95.3776V106.433C156.645 106.663 156.603 106.83 156.52 106.935C156.457 107.019 156.321 107.061 156.111 107.061H153.442C153.253 107.061 153.117 106.987 153.033 106.841C152.95 106.694 152.897 106.516 152.876 106.307L152.814 105.365C152.772 105.009 152.573 104.998 152.217 105.333ZM152.751 99.4604C152.751 99.0835 152.594 98.9055 152.28 98.9265L150.992 99.0207C150.322 99.0626 149.673 99.1673 149.045 99.3348C148.438 99.4813 147.893 99.6907 147.412 99.9629C146.951 100.214 146.574 100.539 146.281 100.936C146.009 101.313 145.873 101.764 145.873 102.287C145.873 102.999 146.124 103.564 146.627 103.983C147.15 104.402 147.851 104.611 148.731 104.611C149.296 104.611 149.82 104.517 150.301 104.328C150.783 104.14 151.201 103.899 151.557 103.606C151.913 103.313 152.196 103.009 152.405 102.695C152.636 102.36 152.751 102.025 152.751 101.69V99.4604Z" fill="#1A181B"/>
<path d="M167.908 90.1013C169.164 90.1013 170.253 90.3211 171.174 90.7608C172.096 91.1796 172.849 91.7344 173.436 92.4254C174.043 93.0954 174.503 93.8072 174.817 94.561C174.943 94.9379 174.838 95.1368 174.503 95.1577L171.74 95.5032C171.53 95.5451 171.384 95.4508 171.3 95.2205C171.028 94.7599 170.745 94.3516 170.452 93.9957C170.159 93.6397 169.824 93.3571 169.447 93.1477C169.07 92.9383 168.609 92.8336 168.065 92.8336C167.228 92.8336 166.484 93.064 165.835 93.5246C165.207 93.9643 164.715 94.6238 164.359 95.5032C164.024 96.3826 163.857 97.4608 163.857 98.738C163.857 100.036 164.035 101.125 164.391 102.004C164.767 102.884 165.28 103.554 165.929 104.014C166.578 104.454 167.353 104.674 168.254 104.674C169.196 104.674 169.97 104.433 170.578 103.951C171.185 103.449 171.75 102.758 172.274 101.879C172.336 101.795 172.399 101.743 172.462 101.722C172.525 101.701 172.629 101.711 172.776 101.753L174.755 102.287C174.964 102.35 175.027 102.528 174.943 102.821C174.734 103.302 174.43 103.815 174.032 104.36C173.655 104.904 173.184 105.407 172.619 105.867C172.054 106.307 171.373 106.673 170.578 106.967C169.803 107.239 168.913 107.375 167.908 107.375C166.317 107.375 164.903 107.019 163.668 106.307C162.433 105.574 161.459 104.569 160.747 103.292C160.056 101.994 159.711 100.497 159.711 98.8009C159.711 97.084 160.067 95.5765 160.779 94.2783C161.491 92.9593 162.464 91.9333 163.7 91.2005C164.935 90.4677 166.338 90.1013 167.908 90.1013Z" fill="#1A181B"/>
<path d="M181.034 100.026C181.034 100.884 181.233 101.659 181.631 102.35C182.029 103.02 182.573 103.554 183.264 103.951C183.976 104.328 184.751 104.517 185.588 104.517C186.447 104.517 187.221 104.339 187.912 103.983C188.624 103.627 189.294 103.051 189.922 102.256C190.006 102.151 190.079 102.099 190.142 102.099C190.205 102.078 190.31 102.109 190.456 102.193L192.372 103.041C192.644 103.166 192.675 103.355 192.466 103.606C191.838 104.527 191.157 105.271 190.425 105.836C189.713 106.38 188.917 106.778 188.038 107.029C187.179 107.26 186.206 107.375 185.117 107.375C183.526 107.375 182.102 107.019 180.846 106.307C179.589 105.595 178.595 104.611 177.862 103.355C177.15 102.078 176.794 100.612 176.794 98.9579C176.794 97.1363 177.161 95.566 177.894 94.2469C178.647 92.9279 179.652 91.9124 180.909 91.2005C182.165 90.4677 183.547 90.1013 185.054 90.1013C186.645 90.1013 188.027 90.4468 189.2 91.1377C190.393 91.8286 191.325 92.8232 191.995 94.1213C192.665 95.3985 193 96.9583 193 98.8009C193 99.0102 192.979 99.1777 192.937 99.3034C192.916 99.429 192.77 99.5023 192.498 99.5232H181.38C181.254 99.5232 181.16 99.5651 181.097 99.6488C181.055 99.7326 181.034 99.8582 181.034 100.026ZM188.477 97.1991C188.687 97.1991 188.823 97.1782 188.886 97.1363C188.97 97.0735 189.011 96.9479 189.011 96.7594C189.011 96.1104 188.865 95.4718 188.572 94.8437C188.279 94.2155 187.849 93.7026 187.284 93.3047C186.719 92.886 186.028 92.6766 185.211 92.6766C184.374 92.6766 183.641 92.886 183.013 93.3047C182.385 93.7026 181.903 94.2469 181.568 94.9379C181.254 95.6079 181.097 96.3616 181.097 97.1991H188.477Z" fill="#1A181B"/>
</svg>
