<svg width="96" height="64" viewBox="0 0 96 64" fill="none" xmlns="http://www.w3.org/2000/svg">
<path d="M30.1538 45.6661C19.9097 47.5408 12.56 47.145 11.4875 44.1362C9.79669 39.3932 24.3452 29.9528 43.9825 23.0506C63.6198 16.1485 80.9096 14.3981 82.6004 19.1412C83.6795 22.1684 78.1435 27.1091 68.8915 32.082" stroke="#364D9D" stroke-width="2"/>
<ellipse cx="46.4646" cy="30.8596" rx="22.9368" ry="22.7755" fill="#364D9D"/>
<path fill-rule="evenodd" clip-rule="evenodd" d="M35.7606 23.912C35.7606 22.9972 36.5074 22.2556 37.4287 22.2556H55.7781C56.6994 22.2556 57.4463 22.9972 57.4463 23.912V38.8196C57.4463 39.7344 56.6994 40.476 55.7781 40.476H37.4287C36.5074 40.476 35.7606 39.7344 35.7606 38.8196V23.912ZM55.7781 23.912H37.4287V38.8196H55.7781V23.912Z" fill="#EDECEE"/>
<path fill-rule="evenodd" clip-rule="evenodd" d="M35.7606 26.3966C35.7606 25.9392 36.134 25.5684 36.5946 25.5684H56.6122C57.0728 25.5684 57.4463 25.9392 57.4463 26.3966C57.4463 26.854 57.0728 27.2248 56.6122 27.2248H36.5946C36.134 27.2248 35.7606 26.854 35.7606 26.3966Z" fill="#EDECEE"/>
<path fill-rule="evenodd" clip-rule="evenodd" d="M42.4331 28.8812C42.8937 28.8812 43.2671 29.252 43.2671 29.7094C43.2671 30.588 43.6186 31.4307 44.2443 32.0519C44.87 32.6732 45.7186 33.0222 46.6034 33.0222C47.4882 33.0222 48.3368 32.6732 48.9625 32.0519C49.5882 31.4307 49.9396 30.588 49.9396 29.7094C49.9396 29.252 50.3131 28.8812 50.7737 28.8812C51.2344 28.8812 51.6078 29.252 51.6078 29.7094C51.6078 31.0273 51.0805 32.2913 50.142 33.2232C49.2035 34.1551 47.9306 34.6786 46.6034 34.6786C45.2761 34.6786 44.0033 34.1551 43.0648 33.2232C42.1262 32.2913 41.599 31.0273 41.599 29.7094C41.599 29.252 41.9724 28.8812 42.4331 28.8812Z" fill="#EDECEE"/>
<path d="M30.1537 45.6661C31.882 45.3498 33.6928 44.9689 35.5697 44.525M68.8914 32.082C67.1479 33.0191 65.2725 33.9574 63.2846 34.8842" stroke="#F7F7F8" stroke-width="2"/>
</svg>
